<svg width="16" height="16" viewBox="0 0 16 16" fill="none" xmlns="http://www.w3.org/2000/svg">
<path d="M12.2427 11.576L8 15.8186L3.75736 11.576C1.41421 9.23281 1.41421 5.43385 3.75736 3.0907C6.10051 0.747557 9.89947 0.747557 12.2427 3.0907C14.5858 5.43385 14.5858 9.23281 12.2427 11.576ZM8 10C9.47273 10 10.6667 8.80608 10.6667 7.33334C10.6667 5.86058 9.47273 4.66668 8 4.66668C6.52724 4.66668 5.33333 5.86058 5.33333 7.33334C5.33333 8.80608 6.52724 10 8 10ZM8 8.66668C7.2636 8.66668 6.66667 8.06974 6.66667 7.33334C6.66667 6.59696 7.2636 6.00001 8 6.00001C8.7364 6.00001 9.33333 6.59696 9.33333 7.33334C9.33333 8.06974 8.7364 8.66668 8 8.66668Z" fill="white" fill-opacity="0.49"/>
</svg>
