<svg width="34" height="34" viewBox="0 0 34 34" fill="none" xmlns="http://www.w3.org/2000/svg">
<path d="M28.1531 6.67666C28.1297 6.50656 27.9808 6.41254 27.8577 6.40222C27.7349 6.39189 25.135 6.19924 25.135 6.19924C25.135 6.19924 23.3294 4.40666 23.1313 4.2083C22.933 4.00994 22.5457 4.07026 22.3955 4.11455C22.3732 4.12107 22.0009 4.23601 21.3849 4.42649C20.7817 2.69097 19.7173 1.09594 17.8446 1.09594C17.793 1.09594 17.7397 1.09811 17.6865 1.1011C17.1539 0.396785 16.4941 0.0908203 15.9243 0.0908203C11.562 0.0908203 9.47786 5.54411 8.82436 8.31545C7.12932 8.8407 5.92503 9.21405 5.77123 9.26241C4.82508 9.55914 4.79519 9.58903 4.67101 10.4806C4.57727 11.1555 2.10156 30.3014 2.10156 30.3014L21.3928 33.9159L31.8456 31.6546C31.8456 31.6546 28.1762 6.84676 28.1531 6.67666ZM20.3187 4.75637C19.8342 4.90636 19.2834 5.07674 18.6864 5.26151C18.687 5.14657 18.6875 5.03326 18.6875 4.90962C18.6875 3.83087 18.5378 2.96243 18.2976 2.27387C19.2625 2.39506 19.9051 3.49284 20.3187 4.75637ZM17.1006 2.48772C17.3688 3.15997 17.5433 4.1246 17.5433 5.42645C17.5433 5.49302 17.5427 5.55389 17.5422 5.61557C16.4805 5.94436 15.3271 6.30141 14.1709 6.65954C14.82 4.15422 16.0368 2.94422 17.1006 2.48772ZM15.8045 1.26088C15.9928 1.26088 16.1824 1.32473 16.364 1.44973C14.9659 2.10758 13.4674 3.76457 12.8345 7.07338C11.9095 7.35978 11.0055 7.63966 10.1697 7.89862C10.9109 5.37482 12.6712 1.26088 15.8045 1.26088Z" fill="#95BF46"/>
<path d="M27.8584 6.40223C27.7355 6.3919 25.1357 6.19925 25.1357 6.19925C25.1357 6.19925 23.33 4.40667 23.132 4.20831C23.0578 4.1344 22.9578 4.09663 22.8532 4.08032L21.3945 33.9157L31.8462 31.6546C31.8462 31.6546 28.1768 6.84677 28.1537 6.67667C28.1304 6.50657 27.9815 6.41255 27.8584 6.40223Z" fill="#5E8E3E"/>
<path d="M17.8445 12.1777L16.5557 16.0115C16.5557 16.0115 15.4264 15.4089 14.0423 15.4089C12.013 15.4089 11.9108 16.6824 11.9108 17.0033C11.9108 18.7544 16.4753 19.4252 16.4753 23.5267C16.4753 26.7534 14.4287 28.8313 11.669 28.8313C8.35746 28.8313 6.66406 26.7703 6.66406 26.7703L7.55071 23.8408C7.55071 23.8408 9.29139 25.3353 10.7603 25.3353C11.7201 25.3353 12.1106 24.5796 12.1106 24.0275C12.1106 21.7433 8.36589 21.6414 8.36589 17.8884C8.36589 14.7295 10.6332 11.6726 15.2099 11.6726C16.9734 11.6726 17.8445 12.1777 17.8445 12.1777Z" fill="white"/>
</svg>
