<svg width="16" height="16" viewBox="0 0 16 16" fill="none" xmlns="http://www.w3.org/2000/svg">
<path d="M4.66634 0.666656V1.99999H1.99967C1.63149 1.99999 1.33301 2.29847 1.33301 2.66666V13.3333C1.33301 13.7015 1.63149 14 1.99967 14H7.16941C6.43749 13.0869 5.99967 11.9279 5.99967 10.6667C5.99967 7.72112 8.38747 5.33332 11.333 5.33332C12.5943 5.33332 13.7533 5.77114 14.6663 6.50308V2.66666C14.6663 2.29847 14.3679 1.99999 13.9997 1.99999H11.333V0.666656H9.99967V1.99999H5.99967V0.666656H4.66634ZM15.333 10.6667C15.333 12.8758 13.5421 14.6667 11.333 14.6667C9.12387 14.6667 7.33301 12.8758 7.33301 10.6667C7.33301 8.45752 9.12387 6.66666 11.333 6.66666C13.5421 6.66666 15.333 8.45752 15.333 10.6667ZM10.6663 7.99999V10.9428L12.1949 12.4714L13.1377 11.5286L11.9997 10.3905V7.99999H10.6663Z" fill="white" fill-opacity="0.49"/>
</svg>
