<svg width="16" height="16" viewBox="0 0 16 16" fill="none" xmlns="http://www.w3.org/2000/svg">
<path d="M2.44466 7.40774C2.16852 7.40851 1.89825 7.48745 1.6651 7.63542C1.43195 7.7834 1.24547 7.99435 1.12721 8.24389C1.00896 8.49343 0.963771 8.77135 0.996878 9.0455C1.02998 9.31964 1.14003 9.57882 1.31429 9.79303L5.02906 14.3436C5.16151 14.5081 5.33129 14.6386 5.5243 14.7242C5.7173 14.8099 5.92796 14.8483 6.13878 14.8362C6.58968 14.812 6.99675 14.5708 7.25629 14.1742L14.9728 1.74675C14.9741 1.74469 14.9754 1.74263 14.9768 1.7406C15.0492 1.62943 15.0257 1.40912 14.8762 1.27072C14.8352 1.23272 14.7868 1.20352 14.734 1.18492C14.6812 1.16633 14.6252 1.15873 14.5694 1.1626C14.5136 1.16647 14.4592 1.18173 14.4095 1.20743C14.3598 1.23313 14.3159 1.26873 14.2805 1.31205C14.2777 1.31545 14.2749 1.3188 14.2719 1.32211L6.48971 10.1148C6.46009 10.1483 6.42413 10.1755 6.3839 10.195C6.34367 10.2144 6.29998 10.2257 6.25536 10.2281C6.21075 10.2305 6.16609 10.224 6.124 10.209C6.08191 10.1941 6.04322 10.1709 6.01017 10.1408L3.4274 7.79045C3.15916 7.54455 2.80855 7.40802 2.44466 7.40774Z" fill="white"/>
</svg>
