<svg width="16" height="16" viewBox="0 0 16 16" fill="none" xmlns="http://www.w3.org/2000/svg">
<path d="M2.44271 7.40786C2.16657 7.40863 1.89629 7.48757 1.66315 7.63555C1.43 7.78352 1.24351 7.99448 1.12526 8.24401C1.007 8.49355 0.961817 8.77147 0.994925 9.04562C1.02803 9.31977 1.13808 9.57894 1.31234 9.79315L5.02711 14.3437C5.15956 14.5082 5.32934 14.6387 5.52234 14.7244C5.71535 14.81 5.92601 14.8484 6.13683 14.8363C6.58772 14.8121 6.9948 14.5709 7.25434 14.1743L14.9709 1.74688C14.9721 1.74481 14.9734 1.74275 14.9748 1.74072C15.0472 1.62955 15.0237 1.40924 14.8743 1.27084C14.8332 1.23284 14.7848 1.20364 14.7321 1.18504C14.6793 1.16645 14.6233 1.15885 14.5675 1.16273C14.5117 1.1666 14.4572 1.18185 14.4075 1.20755C14.3578 1.23326 14.3139 1.26886 14.2785 1.31217C14.2758 1.31557 14.2729 1.31893 14.27 1.32223L6.48775 10.115C6.45814 10.1484 6.42218 10.1757 6.38195 10.1951C6.34172 10.2146 6.29803 10.2258 6.25341 10.2282C6.20879 10.2306 6.16414 10.2242 6.12205 10.2092C6.07996 10.1942 6.04126 10.171 6.00821 10.1409L3.42545 7.79057C3.1572 7.54467 2.8066 7.40814 2.44271 7.40786Z" fill="#FF6A16"/>
</svg>
