<svg width="15" height="15" viewBox="0 0 15 15" fill="none" xmlns="http://www.w3.org/2000/svg">
<g clip-path="url(#clip0_430_553)">
<path d="M6.03703 12.0691C7.37775 12.0691 8.68012 11.6218 9.73785 10.798L13.7283 14.7884C14.0264 15.0763 14.5014 15.0681 14.7893 14.77C15.0702 14.4792 15.0702 14.0182 14.7893 13.7274L10.7989 9.73695C12.8432 7.10536 12.3671 3.3148 9.73555 1.27049C7.10396 -0.773831 3.31343 -0.29778 1.26911 2.33381C-0.775204 4.9654 -0.299154 8.75596 2.33243 10.8003C3.39189 11.6233 4.69543 12.0698 6.03703 12.0691ZM2.83072 2.82978C4.60153 1.05893 7.47259 1.0589 9.24344 2.82972C11.0143 4.60053 11.0143 7.47159 9.24351 9.24244C7.47269 11.0133 4.60163 11.0133 2.83078 9.24251C2.83075 9.24247 2.83075 9.24247 2.83072 9.24244C1.0599 7.48453 1.04947 4.62393 2.80738 2.85312C2.81515 2.84532 2.82292 2.83755 2.83072 2.82978Z" fill="white" fill-opacity="0.65"/>
</g>
<defs>
<clipPath id="clip0_430_553">
<rect width="15" height="15" fill="white"/>
</clipPath>
</defs>
</svg>
