<svg width="165" height="165" viewBox="0 0 165 165" fill="none" xmlns="http://www.w3.org/2000/svg">
<path fill-rule="evenodd" clip-rule="evenodd" d="M165 81.2818C162.094 82.076 159.034 82.5 155.876 82.5H118.992C99.9215 82.5 84.4618 97.9597 84.4618 117.03V157.838C84.4618 160.293 84.2053 162.689 83.7185 165C82.924 162.094 82.5 159.034 82.5 155.876V118.992C82.5 99.9215 67.0405 84.4618 47.9701 84.4618H7.16201C4.70637 84.4618 2.3106 84.2053 0 83.7185C2.90638 82.924 5.96562 82.5 9.12392 82.5H46.0082C65.0786 82.5 80.5381 67.0404 80.5381 47.9701V7.16197C80.5381 4.70634 80.7945 2.31059 81.2818 0C82.076 2.90639 82.5 5.96563 82.5 9.12392V46.0082C82.5 65.0786 97.9597 80.5381 117.03 80.5381H157.838C160.293 80.5381 162.689 80.7945 165 81.2818Z" fill="white" fill-opacity="0.08"/>
</svg>
