<svg width="20" height="20" viewBox="0 0 20 20" fill="none" xmlns="http://www.w3.org/2000/svg">
<path d="M15.3033 14.47L10 19.7732L4.6967 14.47C1.76777 11.541 1.76777 6.79226 4.6967 3.86333C7.62563 0.934393 12.3743 0.934393 15.3033 3.86333C18.2323 6.79226 18.2323 11.541 15.3033 14.47ZM10 12.5C11.8409 12.5 13.3333 11.0075 13.3333 9.16663C13.3333 7.32568 11.8409 5.83329 10 5.83329C8.15905 5.83329 6.66667 7.32568 6.66667 9.16663C6.66667 11.0075 8.15905 12.5 10 12.5ZM10 10.8333C9.0795 10.8333 8.33333 10.0871 8.33333 9.16663C8.33333 8.24615 9.0795 7.49996 10 7.49996C10.9205 7.49996 11.6667 8.24615 11.6667 9.16663C11.6667 10.0871 10.9205 10.8333 10 10.8333Z" fill="#BAD6E6"/>
</svg>
