<svg width="16" height="16" viewBox="0 0 16 16" fill="none" xmlns="http://www.w3.org/2000/svg">
<path d="M2.44368 7.40774C2.16754 7.40851 1.89727 7.48745 1.66412 7.63542C1.43098 7.7834 1.24449 7.99435 1.12624 8.24389C1.00798 8.49343 0.962794 8.77135 0.995901 9.0455C1.02901 9.31964 1.13906 9.57882 1.31331 9.79303L5.02808 14.3436C5.16053 14.5081 5.33031 14.6386 5.52332 14.7242C5.71633 14.8099 5.92699 14.8483 6.13781 14.8362C6.5887 14.812 6.99578 14.5708 7.25531 14.1742L14.9718 1.74675C14.9731 1.74469 14.9744 1.74263 14.9758 1.7406C15.0482 1.62943 15.0247 1.40912 14.8753 1.27072C14.8342 1.23272 14.7858 1.20352 14.733 1.18492C14.6803 1.16633 14.6243 1.15873 14.5684 1.1626C14.5126 1.16647 14.4582 1.18173 14.4085 1.20743C14.3588 1.23313 14.3149 1.26873 14.2795 1.31205C14.2767 1.31545 14.2739 1.3188 14.2709 1.32211L6.48873 10.1148C6.45912 10.1483 6.42315 10.1755 6.38292 10.195C6.34269 10.2144 6.299 10.2257 6.25439 10.2281C6.20977 10.2305 6.16512 10.224 6.12303 10.209C6.08093 10.1941 6.04224 10.1709 6.00919 10.1408L3.42642 7.79045C3.15818 7.54455 2.80758 7.40802 2.44368 7.40774Z" fill="#0A0A0A"/>
</svg>
