<svg width="99" height="99" viewBox="0 0 99 99" fill="none" xmlns="http://www.w3.org/2000/svg">
<g clip-path="url(#clip0_293_62)">
<mask id="mask0_293_62" style="mask-type:luminance" maskUnits="userSpaceOnUse" x="0" y="0" width="99" height="99">
<path d="M99 0H0V99H99V0Z" fill="white"/>
</mask>
<g mask="url(#mask0_293_62)">
<mask id="mask1_293_62" style="mask-type:luminance" maskUnits="userSpaceOnUse" x="0" y="0" width="99" height="99">
<path d="M0 7.62939e-06H99V99H0V7.62939e-06Z" fill="white"/>
</mask>
<g mask="url(#mask1_293_62)">
<path d="M36.9231 15.5741C38.6158 16.2901 40.2798 17.0572 41.9151 17.8728C45.9667 15.722 50.5874 14.5019 55.4939 14.5019C71.5124 14.5019 84.4978 27.4874 84.4978 43.5058C84.4978 48.4123 83.2777 53.0332 81.1272 57.0847C81.9426 58.7199 82.7096 60.384 83.4257 62.0767C84.5187 64.6609 85.4813 67.2838 86.315 69.9402C92.4132 62.8367 96.0994 53.6021 96.0994 43.5058C96.0994 21.0802 77.9195 2.90037 55.4939 2.90037C45.3977 2.90037 36.163 6.58658 29.0596 12.6847C31.7159 13.5185 34.3389 14.4811 36.9231 15.5741Z" stroke="#FF6A16" stroke-width="2" stroke-miterlimit="10"/>
<path d="M72.8965 43.5059C72.8965 53.117 65.1053 60.9082 55.4941 60.9082C45.883 60.9082 38.0918 53.117 38.0918 43.5059C38.0918 33.8947 45.883 26.1035 55.4941 26.1035C65.1053 26.1035 72.8965 33.8947 72.8965 43.5059Z" stroke="#FF6A16" stroke-width="2" stroke-miterlimit="10"/>
<path d="M42.7767 31.6288C31.1929 24.4488 17.5311 20.3027 2.90039 20.3027V96.0996H78.6973C78.6973 81.4691 74.5512 67.8071 67.3712 56.2233" stroke="#FF6A16" stroke-width="2" stroke-miterlimit="10"/>
</g>
</g>
</g>
<defs>
<clipPath id="clip0_293_62">
<rect width="99" height="99" fill="white"/>
</clipPath>
</defs>
</svg>
