<svg width="101" height="99" viewBox="0 0 101 99" fill="none" xmlns="http://www.w3.org/2000/svg">
<path d="M2.94922 42.4893C2.94922 68.2192 24.0782 89.0777 50.1425 89.0777C76.2068 89.0777 97.3358 68.2192 97.3358 42.4893" stroke="#FF6A16" stroke-width="2" stroke-miterlimit="10"/>
<path d="M21.7805 28.8147C10.3436 31.9377 2.94922 36.9007 2.94922 42.4893C2.94922 51.938 24.0792 59.5961 50.1425 59.5961C76.2056 59.5961 97.3358 51.938 97.3358 42.4893C97.3358 36.9007 89.9416 31.9377 78.5045 28.8147" stroke="#FF6A16" stroke-width="2" stroke-miterlimit="10"/>
<path d="M50.1431 9.92236C33.2572 9.92236 19.5684 23.4357 19.5684 40.1053C19.5684 44.8591 33.2572 48.7125 50.1431 48.7125C67.0293 48.7125 80.7179 44.8591 80.7179 40.1053C80.7179 23.4357 67.0293 9.92236 50.1431 9.92236Z" stroke="#FF6A16" stroke-width="2" stroke-miterlimit="10"/>
</svg>
